<svg width="44" height="44" viewBox="0 0 44 44" fill="none" xmlns="http://www.w3.org/2000/svg">
<path d="M21.3125 17.875C22.4516 17.875 23.375 16.9516 23.375 15.8125C23.375 14.6734 22.4516 13.75 21.3125 13.75C20.1734 13.75 19.25 14.6734 19.25 15.8125C19.25 16.9516 20.1734 17.875 21.3125 17.875Z" fill="black"/>
<path d="M28.1875 23.375C29.3266 23.375 30.25 22.4516 30.25 21.3125C30.25 20.1734 29.3266 19.25 28.1875 19.25C27.0484 19.25 26.125 20.1734 26.125 21.3125C26.125 22.4516 27.0484 23.375 28.1875 23.375Z" fill="black"/>
<path d="M22 23.375C22.7594 23.375 23.375 22.7594 23.375 22C23.375 21.2406 22.7594 20.625 22 20.625C21.2406 20.625 20.625 21.2406 20.625 22C20.625 22.7594 21.2406 23.375 22 23.375Z" fill="black"/>
<path d="M22.6875 30.25C23.8266 30.25 24.75 29.3266 24.75 28.1875C24.75 27.0484 23.8266 26.125 22.6875 26.125C21.5484 26.125 20.625 27.0484 20.625 28.1875C20.625 29.3266 21.5484 30.25 22.6875 30.25Z" fill="black"/>
<path d="M15.8125 24.75C16.9516 24.75 17.875 23.8266 17.875 22.6875C17.875 21.5484 16.9516 20.625 15.8125 20.625C14.6734 20.625 13.75 21.5484 13.75 22.6875C13.75 23.8266 14.6734 24.75 15.8125 24.75Z" fill="black"/>
<path d="M38.5 17.875V20.625H35.6813C35.4103 17.9391 34.3506 15.3934 32.6356 13.3086L34.6115 11.3327L36.5558 13.2784L38.5 11.3341L32.6672 5.5L30.723 7.44425L32.6672 9.3885L30.6914 11.3644C28.6066 9.6493 26.0609 8.58959 23.375 8.31875V5.5H26.125V2.75H17.875V5.5H20.625V8.31875C17.9395 8.58985 15.3944 9.64955 13.31 11.3644L11.3314 9.3885L13.2756 7.44425L11.3327 5.5L5.5 11.3341L7.44425 13.2784L9.3885 11.3327L11.3644 13.31C9.65019 15.3946 8.591 17.9397 8.32013 20.625H5.5V17.875H2.75V26.125H5.5V23.375H8.31875C8.58975 26.0609 9.64944 28.6066 11.3644 30.6914L9.3885 32.6672L7.44425 30.7216L5.5 32.6659L11.3327 38.5L13.277 36.5558L11.3327 34.6115L13.3086 32.6356C15.3934 34.3507 17.9391 35.4104 20.625 35.6813V38.5H17.875V41.25H26.125V38.5H23.375V35.6813C26.0605 35.4101 28.6056 34.3505 30.69 32.6356L32.6672 34.6115L30.723 36.5558L32.6672 38.5L38.5 32.6659L36.5558 30.7216L34.6115 32.6672L32.6356 30.6914C34.3501 28.6064 35.4093 26.0607 35.6799 23.375H38.5V26.125H41.25V17.875H38.5ZM22 33C19.8244 33 17.6977 32.3549 15.8887 31.1462C14.0798 29.9375 12.6699 28.2195 11.8373 26.2095C11.0048 24.1995 10.7869 21.9878 11.2114 19.854C11.6358 17.7202 12.6834 15.7602 14.2218 14.2218C15.7602 12.6834 17.7202 11.6358 19.854 11.2114C21.9878 10.7869 24.1995 11.0048 26.2095 11.8373C28.2195 12.6699 29.9375 14.0798 31.1462 15.8887C32.3549 17.6977 33 19.8244 33 22C32.9964 24.9163 31.8363 27.712 29.7742 29.7742C27.712 31.8363 24.9163 32.9964 22 33Z" fill="black"/>
</svg>
