<svg width="36" height="36" viewBox="0 0 36 36" fill="none" xmlns="http://www.w3.org/2000/svg">
<path d="M0 18C0 13.2261 1.89642 8.64773 5.27208 5.27208C8.64773 1.89642 13.2261 0 18 0C22.7739 0 27.3523 1.89642 30.7279 5.27208C34.1036 8.64773 36 13.2261 36 18C36 22.7739 34.1036 27.3523 30.7279 30.7279C27.3523 34.1036 22.7739 36 18 36C13.2261 36 8.64773 34.1036 5.27208 30.7279C1.89642 27.3523 0 22.7739 0 18ZM16.875 2.42325C15.3675 2.88225 13.8713 4.26825 12.6292 6.597C12.22 7.37121 11.8681 8.17436 11.5763 9H16.875V2.42325ZM9.2025 9C9.57751 7.80484 10.0595 6.6459 10.6425 5.53725C11.0315 4.80162 11.4808 4.09948 11.9858 3.438C9.19801 4.59411 6.79951 6.52415 5.07375 9H9.2025ZM7.893 16.875C7.9605 14.9017 8.2035 13.0095 8.595 11.25H3.7665C2.92752 13.0164 2.42688 14.9243 2.2905 16.875H7.893ZM10.9058 11.25C10.4632 13.0946 10.2084 14.9792 10.1452 16.875H16.875V11.25H10.9058ZM19.125 11.25V16.875H25.8525C25.7902 14.9792 25.5361 13.0946 25.0942 11.25H19.125ZM10.1475 19.125C10.2099 21.0208 10.464 22.9054 10.9058 24.75H16.875V19.125H10.1475ZM19.125 19.125V24.75H25.0942C25.515 23.0287 25.7828 21.132 25.8547 19.125H19.125ZM11.5763 27C11.8868 27.8685 12.24 28.674 12.6292 29.403C13.8713 31.7318 15.3698 33.1155 16.875 33.5768V27H11.5763ZM11.9858 32.562C11.4808 31.9005 11.0315 31.1984 10.6425 30.4627C10.0595 29.3541 9.57752 28.1952 9.2025 27H5.07375C6.79942 29.4759 9.19794 31.406 11.9858 32.562ZM8.595 24.75C8.18812 22.9006 7.95312 21.0176 7.893 19.125H2.2905C2.43 21.1275 2.94525 23.0243 3.7665 24.75H8.595ZM24.0143 32.562C26.8021 31.406 29.2006 29.4759 30.9263 27H26.7975C26.4225 28.1951 25.9405 29.3541 25.3575 30.4627C24.9686 31.1984 24.5193 31.9006 24.0143 32.562ZM19.125 27V33.5768C20.6325 33.1178 22.1287 31.7318 23.3708 29.403C23.76 28.674 24.1132 27.8685 24.4237 27H19.125ZM27.405 24.75H32.2335C33.0548 23.0243 33.57 21.1275 33.7095 19.125H28.107C28.0469 21.0176 27.8119 22.9007 27.405 24.75ZM33.7095 16.875C33.5731 14.9243 33.0724 13.0164 32.2335 11.25H27.405C27.7965 13.0095 28.0395 14.9017 28.107 16.875H33.7095ZM25.3575 5.53725C25.9133 6.58125 26.397 7.74225 26.7975 9H30.9263C29.2006 6.52406 26.8021 4.594 24.0143 3.438C24.5048 4.077 24.9548 4.7835 25.3575 5.53725ZM24.4237 9C24.1319 8.17435 23.78 7.3712 23.3708 6.597C22.1287 4.26825 20.6325 2.8845 19.125 2.42325V9H24.4237Z" fill="black"/>
</svg>
