<svg width="52" height="54" viewBox="0 0 52 54" fill="none" xmlns="http://www.w3.org/2000/svg">
<path fill-rule="evenodd" clip-rule="evenodd" d="M16.174 2.3985C18.7155 2.277 19.5258 2.25 25.9998 2.25C32.4738 2.25 33.2842 2.27925 35.8235 2.3985C38.3628 2.51775 40.0962 2.9385 41.6128 3.54825C43.201 4.1715 44.6418 5.14575 45.8335 6.40575C47.0468 7.641 47.9828 9.135 48.5808 10.7865C49.1702 12.3615 49.5732 14.1615 49.6902 16.794C49.8072 19.4377 49.8332 20.2792 49.8332 27C49.8332 33.723 49.805 34.5645 49.6902 37.2038C49.5753 39.8363 49.1702 41.6362 48.5808 43.2113C47.9828 44.863 47.0453 46.3594 45.8335 47.5965C44.6418 48.8565 43.201 49.8285 41.6128 50.4495C40.0962 51.0615 38.3628 51.48 35.8278 51.6015C33.2842 51.723 32.4738 51.75 25.9998 51.75C19.5258 51.75 18.7155 51.7207 16.174 51.6015C13.639 51.4823 11.9057 51.0615 10.389 50.4495C8.7985 49.8284 7.35745 48.8548 6.16617 47.5965C4.95366 46.3605 4.01535 44.8647 3.41667 43.2135C2.8295 41.6385 2.4265 39.8385 2.3095 37.206C2.1925 34.5622 2.1665 33.7208 2.1665 27C2.1665 20.277 2.19467 19.4355 2.3095 16.7985C2.42434 14.1615 2.8295 12.3615 3.41667 10.7865C4.01624 9.13518 4.95526 7.63945 6.16834 6.4035C7.35792 5.14463 8.79753 4.17025 10.3868 3.54825C11.9035 2.9385 13.6368 2.52 16.1718 2.3985H16.174ZM35.6307 6.8535C33.1173 6.73425 32.3633 6.7095 25.9998 6.7095C19.6363 6.7095 18.8823 6.73425 16.369 6.8535C14.0442 6.96375 12.7832 7.3665 11.9425 7.70625C10.831 8.15625 10.0358 8.6895 9.20167 9.55575C8.41093 10.3546 7.80239 11.3271 7.42067 12.402C7.0935 13.275 6.70567 14.5845 6.5995 16.9987C6.48467 19.6087 6.46084 20.3918 6.46084 27C6.46084 33.6082 6.48467 34.3913 6.5995 37.0013C6.70567 39.4155 7.0935 40.725 7.42067 41.598C7.802 42.6713 8.41084 43.6455 9.20167 44.4443C9.97084 45.2655 10.909 45.8978 11.9425 46.2938C12.7832 46.6335 14.0442 47.0363 16.369 47.1465C18.8823 47.2658 19.6342 47.2905 25.9998 47.2905C32.3655 47.2905 33.1173 47.2658 35.6307 47.1465C37.9555 47.0363 39.2165 46.6335 40.0572 46.2938C41.1687 45.8438 41.9638 45.3105 42.798 44.4443C43.5888 43.6455 44.1977 42.6713 44.579 41.598C44.9062 40.725 45.294 39.4155 45.4002 37.0013C45.515 34.3913 45.5388 33.6082 45.5388 27C45.5388 20.3918 45.515 19.6087 45.4002 16.9987C45.294 14.5845 44.9062 13.275 44.579 12.402C44.1457 11.2478 43.6322 10.422 42.798 9.55575C42.0287 8.73466 41.0922 8.10272 40.0572 7.70625C39.2165 7.3665 37.9555 6.96375 35.6307 6.8535ZM22.9557 34.6297C24.6558 35.3647 26.5488 35.4639 28.3115 34.9104C30.0742 34.3569 31.5972 33.1851 32.6203 31.595C33.6435 30.005 34.1033 28.0955 33.9213 26.1925C33.7393 24.2895 32.9267 22.5112 31.6223 21.1612C30.7908 20.2983 29.7855 19.6376 28.6786 19.2266C27.5717 18.8156 26.3908 18.6646 25.2209 18.7844C24.0511 18.9042 22.9213 19.2919 21.9131 19.9195C20.9048 20.5472 20.0431 21.3992 19.39 22.4142C18.7369 23.4292 18.3086 24.5819 18.136 25.7894C17.9633 26.9969 18.0507 28.2292 18.3917 29.3974C18.7327 30.5657 19.3189 31.6409 20.1081 32.5456C20.8972 33.4504 21.8698 34.1622 22.9557 34.6297ZM17.3375 18.0045C18.4751 16.8232 19.8255 15.8861 21.3118 15.2468C22.7981 14.6075 24.3911 14.2784 25.9998 14.2784C27.6086 14.2784 29.2016 14.6075 30.6879 15.2468C32.1741 15.8861 33.5246 16.8232 34.6622 18.0045C35.7997 19.1858 36.7021 20.5882 37.3177 22.1317C37.9334 23.6751 38.2502 25.3294 38.2502 27C38.2502 28.6706 37.9334 30.3249 37.3177 31.8683C36.7021 33.4118 35.7997 34.8142 34.6622 35.9955C32.3648 38.3813 29.2488 39.7216 25.9998 39.7216C22.7508 39.7216 19.6349 38.3813 17.3375 35.9955C15.0401 33.6097 13.7494 30.374 13.7494 27C13.7494 23.626 15.0401 20.3903 17.3375 18.0045ZM40.9672 16.173C41.2491 15.8969 41.4747 15.5648 41.6308 15.1964C41.7869 14.8281 41.8703 14.431 41.8759 14.0286C41.8816 13.6262 41.8094 13.2267 41.6637 12.8538C41.518 12.4809 41.3018 12.1421 41.0277 11.8576C40.7537 11.573 40.4275 11.3485 40.0684 11.1972C39.7093 11.0459 39.3246 10.9709 38.9372 10.9768C38.5497 10.9827 38.1673 11.0692 37.8126 11.2313C37.4579 11.3934 37.1381 11.6278 36.8722 11.9205C36.355 12.4898 36.0719 13.246 36.0829 14.0286C36.0938 14.8112 36.3981 15.5585 36.931 16.1119C37.4639 16.6653 38.1836 16.9813 38.9372 16.9927C39.6907 17.0041 40.4189 16.7101 40.9672 16.173Z" fill="#545454"/>
</svg>
