<svg width="48" height="48" viewBox="0 0 48 48" fill="none" xmlns="http://www.w3.org/2000/svg">
<path fill-rule="evenodd" clip-rule="evenodd" d="M25.0001 6H23.0001V10.17C22.4831 10.3534 22.0261 10.6748 21.6789 11.0995C21.3316 11.5242 21.1072 12.0359 21.0301 12.579L13.7401 14.534C13.5146 14.5949 13.3175 14.7329 13.1831 14.924L7.32812 23.218H6.12012C6.11951 24.0229 6.23297 24.8239 6.45712 25.597C7.40712 28.853 10.2541 31.217 13.6201 31.217C17.1151 31.217 20.0511 28.667 20.8841 25.217C21.0412 24.5633 21.1204 23.8933 21.1201 23.221V23.218H20.1851L15.5851 16.11L21.4271 14.543C21.7866 15.141 22.3426 15.5956 23.0001 15.829V38H20.0001V40H14.0001V42H34.0001V40H28.0001V38H25.0001V15.83C25.5776 15.6256 26.0788 15.2494 26.4363 14.7519C26.7938 14.2545 26.9905 13.6595 27.0001 13.047L32.1401 11.669L28.4731 17H27.0001C27.0001 17.69 27.0821 18.36 27.2361 19C28.0691 22.45 31.0061 25 34.5001 25C37.8651 25 40.7131 22.636 41.6631 19.379C41.8873 18.6069 42.0007 17.807 42.0001 17.003V17H40.0541L35.3601 9.49C35.2488 9.30214 35.0791 9.15587 34.8769 9.07353C34.6746 8.99119 34.451 8.9773 34.2401 9.034L26.3601 11.148C26.0085 10.7001 25.5368 10.3613 25.0001 10.171V6ZM30.9011 17H37.6961L34.4601 11.823L30.9011 17ZM17.8031 23.218L13.9641 17.285L9.77612 23.218H17.8031Z" fill="black"/>
</svg>
