<svg width="116" height="106" viewBox="0 0 116 106" fill="none" xmlns="http://www.w3.org/2000/svg">
<g clip-path="url(#clip0_472_51)">
<path d="M58.5891 61.1312C58.5891 61.4986 58.5891 61.5825 58.8609 61.8092L60.3823 63.1808V63.2398H53.6341V60.6032C53.3083 61.4472 52.7017 62.177 51.8993 62.6902C51.0969 63.2035 50.1389 63.4745 49.1595 63.4654C45.692 63.4654 43.1737 60.9552 43.1737 56.3363C43.1737 52.0094 45.8914 49.1223 49.7044 49.1223C50.5322 49.0766 51.3549 49.2682 52.0578 49.6703C52.7606 50.0724 53.3086 50.6651 53.6251 51.3655V45.5489C53.6499 45.4173 53.6343 45.282 53.5802 45.1579C53.526 45.0339 53.4353 44.9259 53.3181 44.8461L51.8681 43.5573V43.4993L58.5891 42.7706V61.1312ZM53.6341 60.2937V51.616C53.3945 51.34 53.0887 51.118 52.7402 50.9673C52.3918 50.8165 52.01 50.7409 51.6245 50.7465C49.9842 50.7465 48.3994 52.118 48.3994 56.1935C48.3994 60.009 49.7667 61.3568 51.4693 61.3568C51.8963 61.3481 52.3151 61.2473 52.6913 61.0625C53.0675 60.8778 53.3906 60.6143 53.6341 60.2937ZM63.0625 63.2398V51.5239C63.0838 51.3953 63.0702 51.264 63.0228 51.1414C62.9754 51.0188 62.8956 50.9088 62.7907 50.821L61.2965 49.3987V49.3397H68.0435V61.2233C68.0435 61.5908 68.0435 61.6746 68.3154 61.9003L69.8016 63.189V63.248L63.0625 63.2398ZM62.8179 45.0552C62.8179 43.6681 64.0345 42.5449 65.5355 42.5449C67.0364 42.5449 68.252 43.6691 68.252 45.0552C68.252 46.4423 67.0364 47.5654 65.5355 47.5654C64.0345 47.5654 62.8179 46.4423 62.8179 45.0552ZM86.2478 61.1063C86.2478 61.4738 86.2478 61.5825 86.5197 61.8092L88.0411 63.1808V63.2398H81.2578V60.2357C80.9626 61.157 80.3523 61.9676 79.5163 62.5488C78.6802 63.13 77.6625 63.4512 76.6121 63.4654C73.6045 63.4654 71.9925 61.4407 71.9925 57.6075C71.9925 55.7587 71.9925 53.7329 72.0559 51.4576C72.0805 51.3327 72.0683 51.2041 72.0205 51.085C71.9727 50.9658 71.8911 50.8604 71.7841 50.7796L70.291 49.3977V49.3387H76.9848V56.9791C76.9848 59.4894 77.3824 61.1632 79.085 61.1632C79.5367 61.1364 79.9738 61.0068 80.3566 60.7863C80.7394 60.5657 81.0558 60.2612 81.277 59.9003V51.5311C81.2983 51.4026 81.2847 51.2712 81.2373 51.1486C81.1898 51.026 81.1101 50.916 81.0052 50.8282L79.5019 49.3977V49.3387H86.2489V61.1053L86.2478 61.1063ZM109.217 63.2387C109.217 62.7874 109.307 57.0309 109.307 55.708C109.307 53.1977 108.881 51.4659 106.97 51.4659C106.495 51.48 106.029 51.5965 105.612 51.8059C105.195 52.0152 104.838 52.3116 104.57 52.6708C104.762 53.4535 104.853 54.2539 104.842 55.0558C104.842 56.7959 104.778 59.0132 104.751 61.2316C104.727 61.3565 104.739 61.4851 104.787 61.6042C104.834 61.7234 104.916 61.8288 105.023 61.9096L106.544 63.1984V63.2563H99.7339C99.7339 62.8381 99.8246 57.0475 99.8246 55.7245C99.8246 53.1729 99.3986 51.4825 97.5148 51.4825C96.5859 51.5135 95.7385 51.9793 95.2684 52.7205V61.2564C95.2684 61.6249 95.2684 61.7088 95.5403 61.9344L97.0254 63.2232V63.2812H90.2874V51.5663C90.3089 51.4376 90.2954 51.306 90.2479 51.1832C90.2005 51.0605 90.1207 50.9503 90.0155 50.8624L88.5214 49.3987V49.3397H95.2695V52.3189C95.896 50.3521 97.8897 49.0312 100.107 49.114C102.352 49.114 103.874 50.2693 104.517 52.4617C104.858 51.4809 105.535 50.6262 106.448 50.0235C107.361 49.4208 108.462 49.102 109.588 49.114C112.596 49.114 114.299 51.1636 114.299 55.0382C114.299 56.888 114.235 58.9967 114.208 61.214C114.182 61.3421 114.197 61.4744 114.252 61.5948C114.307 61.7151 114.398 61.8184 114.516 61.892L116.001 63.1808V63.2398H109.218L109.217 63.2387ZM24.454 61.4158L26.4546 63.1808V63.2398H16.3023V63.1808L18.3402 61.4158C18.4473 61.335 18.5289 61.2296 18.5767 61.1105C18.6245 60.9913 18.6367 60.8627 18.6121 60.7378V49.4484C18.6121 48.9722 18.6121 48.3273 18.7027 47.7756L11.856 63.4654H11.7745L4.68305 49.0302C4.52785 48.671 4.48254 48.6451 4.38285 48.4029V57.8673C4.29784 58.5005 4.41426 59.1428 4.71816 59.7171L7.57172 63.1808V63.2398H0V63.1808L2.85242 59.7078C3.1539 59.1361 3.27024 58.4975 3.18773 57.8673V47.4071C3.23487 46.8932 3.06731 46.382 2.71875 45.9765L0.697812 43.5573V43.4993H7.94328L14.0106 55.7245L19.3541 43.4993H26.4455V43.5573L24.454 45.6069C24.3364 45.6867 24.2454 45.7948 24.191 45.919C24.1366 46.0433 24.121 46.1789 24.1459 46.3108V60.7378C24.1199 60.8659 24.1351 60.9982 24.1898 61.1186C24.2445 61.239 24.3363 61.3422 24.454 61.4158ZM32.3962 55.7587V55.8167C32.3962 59.3983 34.3979 60.8372 36.7439 60.8372C37.7059 60.8655 38.6558 60.6359 39.4766 60.1765C40.2973 59.7172 40.9529 59.0483 41.3624 58.2524H41.4258C40.6102 61.7926 38.2381 63.4654 34.6879 63.4654C30.8567 63.4654 27.243 61.332 27.243 56.386C27.243 51.1895 30.8657 49.114 34.8691 49.114C38.0931 49.114 41.5255 50.5198 41.5255 55.0393V55.7587H32.3962ZM32.3962 55.0393H36.8617V54.3105C36.8617 50.6285 36.037 49.6492 34.7966 49.6492C33.2934 49.6492 32.378 51.1139 32.378 55.0393H32.3962Z" fill="#545454"/>
</g>
<defs>
<clipPath id="clip0_472_51">
<rect width="116" height="106" fill="white"/>
</clipPath>
</defs>
</svg>
