<svg width="34" height="38" viewBox="0 0 34 38" fill="none" xmlns="http://www.w3.org/2000/svg">
<path d="M16.9999 23.75C14.3933 23.75 14.1666 22.3883 14.1666 22.1667H11.3333C11.3333 23.6233 12.2683 26.2042 15.5833 26.79V28.5H18.4166V26.79C21.2499 26.2517 22.6666 24.2092 22.6666 22.1667C22.6666 20.3933 21.9299 17.4167 16.9999 17.4167C14.1666 17.4167 14.1666 16.4192 14.1666 15.8333C14.1666 15.2475 15.1583 14.25 16.9999 14.25C18.8416 14.25 18.9691 15.2633 18.9833 15.8333H21.8166C21.7974 14.7547 21.4503 13.7155 20.8324 12.8867C20.2144 12.0579 19.3624 11.4889 18.4166 11.2733V9.5H15.5833V11.2258C12.7499 11.7483 11.3333 13.7908 11.3333 15.8333C11.3333 17.6067 12.0699 20.5833 16.9999 20.5833C19.8333 20.5833 19.8333 21.66 19.8333 22.1667C19.8333 22.6733 18.9549 23.75 16.9999 23.75Z" fill="black"/>
<path d="M7.08325 3.16663H2.83325V6.33329H5.66659V33.25C5.66659 33.6699 5.81584 34.0726 6.08152 34.3695C6.34719 34.6665 6.70753 34.8333 7.08325 34.8333H26.9166C27.2923 34.8333 27.6526 34.6665 27.9183 34.3695C28.184 34.0726 28.3333 33.6699 28.3333 33.25V6.33329H31.1666V3.16663H7.08325ZM25.4999 31.6666H8.49992V6.33329H25.4999V31.6666Z" fill="black"/>
</svg>
