<svg width="48" height="46" viewBox="0 0 48 46" fill="none" xmlns="http://www.w3.org/2000/svg">
<path d="M24.8444 32.3286C22.6311 30.6302 19.0424 30.6302 16.8291 32.3286C14.6181 34.0277 14.6181 36.7813 16.8291 38.4804C19.0416 40.1795 22.6304 40.1795 24.8444 38.4804C27.0561 36.7813 27.0561 34.0277 24.8444 32.3286Z" fill="black"/>
<path d="M16.3395 29.8785C18.0548 27.8365 17.4743 25.2569 15.0443 24.1184C12.6135 22.9806 9.25429 23.713 7.53904 25.755C5.82604 27.797 6.40504 30.3766 8.83429 31.5151C11.2658 32.6543 14.6258 31.9211 16.3395 29.8785Z" fill="black"/>
<path d="M14.0123 20.1379C15.654 18.3798 15.2573 16.0317 13.125 14.8932C10.9935 13.754 7.93579 14.2556 6.29329 16.0137C4.65079 17.7718 5.04829 20.1192 7.17979 21.2577C9.31129 22.3969 12.3705 21.8952 14.0123 20.1379Z" fill="black"/>
<path d="M15.5251 13.8777C17.5636 15.0147 20.5268 14.5821 22.1423 12.9138C23.7586 11.2449 23.4173 8.9715 21.3796 7.83515C19.3418 6.69809 16.3786 7.13006 14.7631 8.79828C13.1461 10.4672 13.4873 12.7406 15.5251 13.8777Z" fill="black"/>
<path d="M32.7346 10.976C34.5496 10.0869 34.7513 8.34034 33.1846 7.07318C31.6193 5.80603 28.8751 5.49912 27.0593 6.3875C25.2428 7.27587 25.0418 9.02315 26.6086 10.2903C28.1753 11.5575 30.9196 11.8644 32.7346 10.976Z" fill="black"/>
<path d="M39.3563 23.8618C37.7333 23.4047 36.333 23.0093 35.9483 22.0944C35.7255 21.5639 35.8125 20.7848 36.1905 19.7793C40.215 16.1712 46.236 10.3572 46.0665 7.99466C45.999 7.05022 44.4285 5.69753 43.3988 5.69753L43.3178 5.70041C42.2033 5.77372 40.5 7.18678 38.6805 9.10009C38.5279 8.66123 38.3318 8.23738 38.0948 7.83437C36.186 4.68266 31.9898 2.875 26.583 2.875C22.3793 2.875 17.6985 3.98547 13.0493 6.08638C7.08154 8.78313 2.62429 14.4066 1.69429 20.4139C1.00279 24.8745 1.82929 31.6207 9.68779 38.4366C13.1723 41.4604 18.6593 43.125 25.1355 43.125H25.1378C30.3368 43.125 35.604 42.016 39.591 40.0847C44.0468 37.9248 46.5 34.9377 46.5 31.6724C46.5 25.875 42.3705 24.7113 39.3563 23.8618ZM43.3988 6.77566C43.872 6.77566 44.919 7.71722 44.9438 8.06797C45.087 10.0683 37.6515 17.158 32.6813 21.3857L31.8338 20.6792L31.2795 20.2156C34.9785 14.927 41.304 6.91222 43.3988 6.77566ZM29.4495 22.3244L30.591 21.0702L31.8893 22.1555L30.75 23.409L29.4495 22.3244ZM38.9145 38.801C35.13 40.6353 30.1095 41.6875 25.1378 41.6875H25.1363C19.0313 41.6875 13.9028 40.1544 10.6943 37.3707C3.32629 30.9817 2.53954 24.7379 3.17629 20.6245C4.03579 15.0801 8.16229 9.88425 13.6905 7.38659C18.1403 5.37553 22.599 4.3125 26.583 4.3125C31.3703 4.3125 35.1878 5.89878 36.7965 8.556C37.143 9.12741 37.3755 9.73834 37.5105 10.378C34.152 14.1752 30.741 19.0411 30.0893 19.9798L28.0065 22.2683C26.913 22.2575 25.818 22.7154 25.4805 23.8215C24.237 27.8861 21.4673 30.4067 21.4673 30.4067C21.4673 30.4067 28.488 29.077 29.8313 27.5662C30.5588 26.7483 30.9113 25.7708 30.903 24.8795L33.084 22.4832C33.375 22.2381 33.8078 21.8694 34.341 21.408C34.338 21.8565 34.4025 22.2662 34.5555 22.6313C35.2118 24.1924 37.0185 24.7013 38.9318 25.2403C41.9145 26.0813 44.9993 26.9503 44.9993 31.6724C45 34.3678 42.8378 36.8992 38.9145 38.801Z" fill="black"/>
<path d="M40.5908 28.6113C38.3783 26.9129 34.7888 26.9129 32.5763 28.6113C30.3638 30.3097 30.3646 33.064 32.5763 34.7631C34.7881 36.4622 38.3776 36.4615 40.5908 34.7631C42.8041 33.0647 42.8033 30.3097 40.5908 28.6113ZM39.5011 33.9258C37.8908 35.1627 35.2763 35.1627 33.6668 33.9258C32.0566 32.6888 32.0566 30.6842 33.6668 29.448C35.2763 28.211 37.8908 28.211 39.5011 29.448C41.1113 30.6849 41.1113 32.6888 39.5011 33.9258Z" fill="black"/>
</svg>
