<svg width="44" height="44" viewBox="0 0 44 44" fill="none" xmlns="http://www.w3.org/2000/svg">
<path d="M27.4999 23.8333V9.16663C27.4999 6.12329 25.0433 3.66663 21.9999 3.66663C18.9566 3.66663 16.4999 6.12329 16.4999 9.16663V23.8333C14.2816 25.5016 12.8333 28.1783 12.8333 31.1666C12.8333 36.2266 16.9399 40.3333 21.9999 40.3333C27.0599 40.3333 31.1666 36.2266 31.1666 31.1666C31.1666 28.1783 29.7183 25.5016 27.4999 23.8333ZM20.1666 9.16663C20.1666 8.15829 20.9916 7.33329 21.9999 7.33329C23.0083 7.33329 23.8333 8.15829 23.8333 9.16663H21.9999V11H23.8333V14.6666H21.9999V16.5H23.8333V20.1666H20.1666V9.16663Z" fill="black"/>
</svg>
