<svg width="58" height="64" viewBox="0 0 58 64" fill="none" xmlns="http://www.w3.org/2000/svg">
<path d="M42.9836 23.0446C47.2154 25.9897 52.3996 27.7226 57.9986 27.7226V17.2332C56.9389 17.2334 55.882 17.1257 54.8453 16.9119V25.1685C49.2467 25.1685 44.0632 23.4359 39.8306 20.491V41.897C39.8306 52.6055 30.914 61.2857 19.9157 61.2857C15.812 61.2857 11.9976 60.0779 8.8291 58.0063C12.4455 61.6064 17.4888 63.8395 23.0681 63.8395C34.0673 63.8395 42.9841 55.1594 42.9841 44.4504V23.0446H42.9836ZM46.8737 12.4621C44.7109 10.1619 43.2909 7.18917 42.9836 3.90266V2.55359H39.9955C40.7477 6.73058 43.3133 10.2991 46.8735 12.4621H46.8737ZM15.7855 49.7891C14.5772 48.2468 13.9241 46.3598 13.927 44.4197C13.927 39.5222 18.0053 35.5511 23.0371 35.5511C23.9746 35.5506 24.9067 35.6908 25.8004 35.9667V25.2427C24.756 25.1034 23.702 25.0441 22.6485 25.0659V33.4128C21.7543 33.1368 20.8218 32.9967 19.8838 32.9975C14.8523 32.9975 10.7741 36.9681 10.7741 41.8664C10.7741 45.3299 12.8125 48.3284 15.7855 49.7891Z" fill="#FF004F"/>
<path d="M39.8301 20.4908C44.063 23.4357 49.2461 25.1683 54.8449 25.1683V16.9117C51.7197 16.2635 48.9531 14.6736 46.8731 12.4621C43.3126 10.2989 40.7473 6.73036 39.9951 2.55359H32.1463V44.45C32.1284 49.3343 28.057 53.289 23.0362 53.289C20.0777 53.289 17.4492 51.9161 15.7846 49.7889C12.8121 48.3284 10.7735 45.3296 10.7735 41.8666C10.7735 36.9688 14.8516 32.9977 19.8831 32.9977C20.8471 32.9977 21.7763 33.1438 22.6479 33.4131V25.0661C11.8426 25.2835 3.15283 33.8789 3.15283 44.4502C3.15283 49.7273 5.31673 54.5112 8.8289 58.0067C11.9974 60.0779 15.8116 61.2862 19.9155 61.2862C30.914 61.2862 39.8304 52.6053 39.8304 41.897V20.491H39.8301V20.4908Z" fill="black"/>
<path d="M54.8451 16.9114V14.6794C52.0269 14.6836 49.2643 13.9152 46.8733 12.4621C48.9898 14.718 51.7769 16.2737 54.8451 16.9119V16.9114ZM39.9951 2.55338C39.9234 2.15429 39.8684 1.75252 39.8301 1.34908V0H28.9928V41.8968C28.9755 46.7807 24.9042 50.7355 19.8831 50.7355C18.4597 50.7375 17.0557 50.4134 15.7846 49.7894C17.4492 51.9161 20.0777 53.2888 23.0362 53.2888C28.0568 53.2888 32.1286 49.3345 32.1463 44.4502V2.5536H39.9951V2.55338ZM22.6485 25.0659V22.6893C21.743 22.5687 20.83 22.5084 19.916 22.5088C8.91637 22.5088 0 31.1894 0 41.8968C0 48.61 3.50424 54.5262 8.82937 58.0063C5.3172 54.511 3.1533 49.7269 3.1533 44.45C3.1533 33.879 11.8429 25.2835 22.6485 25.0662V25.0659Z" fill="#00F2EA"/>
</svg>
