<svg width="67" height="58" viewBox="0 0 67 58" fill="none" xmlns="http://www.w3.org/2000/svg">
<path d="M67 7.06268C64.4911 8.24121 61.8299 9.01479 59.105 9.35771C61.9433 7.55388 64.1227 4.69745 65.1489 1.29404C62.4507 2.99182 59.4986 4.18801 56.4203 4.83093C53.9128 1.99837 50.3406 0.228119 46.3868 0.228119C38.7954 0.228119 32.6405 6.75409 32.6405 14.803C32.6405 15.9456 32.7622 17.0578 32.9965 18.1249C21.5724 17.5168 11.4439 11.7143 4.66409 2.89612C3.48112 5.04878 2.80327 7.55277 2.80327 10.2235C2.80327 15.2804 5.23019 19.7414 8.91833 22.3553C6.73546 22.2828 4.60062 21.6576 2.69204 20.532C2.69125 20.5931 2.69125 20.6541 2.69125 20.7154C2.69125 27.7773 7.42941 33.6683 13.7175 35.0073C11.6933 35.591 9.57008 35.6765 7.51002 35.2571C9.25909 41.0476 14.3356 45.2614 20.3505 45.3793C15.6461 49.2884 9.71893 51.6186 3.27907 51.6186C2.16939 51.6186 1.0754 51.5495 0 51.4149C6.08313 55.5504 13.3084 57.9634 21.071 57.9634C46.3548 57.9634 60.1807 35.7538 60.1807 16.4934C60.1807 15.8612 60.1676 15.2326 60.1409 14.6077C62.832 12.5449 65.1547 9.98992 67 7.06268Z" fill="#55ACEE"/>
</svg>
