<svg width="58" height="44" viewBox="0 0 58 44" fill="none" xmlns="http://www.w3.org/2000/svg">
<g clip-path="url(#clip0_472_40)">
<path d="M56.7191 37.1372C56.3864 38.4637 55.7374 39.673 54.8369 40.6447C53.9363 41.6164 52.8155 42.3166 51.5861 42.6756C47.0852 44 28.9706 44 28.9706 44C28.9706 44 10.8551 43.9599 6.35422 42.6355C5.12477 42.2765 4.00395 41.5762 3.10337 40.6045C2.20278 39.6327 1.55386 38.4234 1.22122 37.0969C-0.140199 28.4685 -0.668316 15.3208 1.2586 7.03755C1.59128 5.71109 2.24022 4.5018 3.1408 3.53009C4.04138 2.55838 5.16218 1.85817 6.3916 1.49917C10.8925 0.174774 29.0075 0.174774 29.0075 0.174774C29.0075 0.174774 47.1223 0.174774 51.623 1.49917C52.8524 1.85813 53.9733 2.55833 54.8739 3.53004C55.7745 4.50175 56.4235 5.71106 56.7562 7.03755C58.1922 15.6782 58.6346 28.8176 56.7191 37.137V37.1372Z" fill="#FF0000"/>
<path d="M23.2046 12.6964L38.232 22.0875L23.2046 31.4786V12.6964Z" fill="white"/>
</g>
<defs>
<clipPath id="clip0_472_40">
<rect width="58" height="44" fill="white" transform="matrix(1 0 0 -1 0 44)"/>
</clipPath>
</defs>
</svg>
